<?xml version="1.0" encoding="UTF-8"?>
<svg width="800" height="500" viewBox="0 0 800 500" xmlns="http://www.w3.org/2000/svg">
    <defs>
        <linearGradient id="headerGradient" x1="0%" y1="0%" x2="100%" y2="0%">
            <stop offset="0%" stop-color="#1976d2" />
            <stop offset="100%" stop-color="#1565c0" />
        </linearGradient>
        <linearGradient id="safetyGaugeGradient" x1="0%" y1="0%" x2="100%" y2="0%">
            <stop offset="0%" stop-color="#4caf50" />
            <stop offset="50%" stop-color="#ffc107" />
            <stop offset="100%" stop-color="#f44336" />
        </linearGradient>
        <filter id="dropShadow" x="-10%" y="-10%" width="120%" height="120%">
            <feDropShadow dx="0" dy="2" stdDeviation="2" flood-color="#000" flood-opacity="0.2" />
        </filter>
        <filter id="highlightGlow" x="-20%" y="-20%" width="140%" height="140%">
            <feGaussianBlur stdDeviation="2" result="blur" />
            <feFlood flood-color="#f44336" flood-opacity="0.5" result="coloredBlur" />
            <feComposite in="coloredBlur" in2="blur" operator="in" result="coloredBlurIn" />
            <feComposite in="SourceGraphic" in2="coloredBlurIn" operator="over" />
        </filter>
    </defs>
    
    <!-- 배경 패널 -->
    <rect x="0" y="0" width="800" height="500" rx="10" fill="#f5f7fa" />
    
    <!-- 상단 헤더 -->
    <rect x="0" y="0" width="800" height="60" rx="10 10 0 0" fill="url(#headerGradient)" />
    
    <!-- 헤더 내용 -->
    <g>
        <!-- 로고 아이콘 -->
        <g transform="translate(20, 10) scale(0.4)">
            <circle cx="50" cy="50" r="45" fill="#1e88e5" />
            <path d="M50,20 C40,20 32,25 30,35 L30,40 L70,40 L70,35 C68,25 60,20 50,20 Z" fill="#ffffff" />
            <path d="M30,40 L32,55 L68,55 L70,40 Z" fill="#ffffff" />
            <polyline points="35,65 45,55 55,65 65,50" fill="none" stroke="#ffffff" stroke-width="3" />
            <circle cx="35" cy="65" r="3" fill="#ffa000" />
            <circle cx="45" cy="55" r="3" fill="#ffa000" />
            <circle cx="55" cy="65" r="3" fill="#ffa000" />
            <circle cx="65" cy="50" r="3" fill="#ffa000" />
        </g>
        
        <text x="80" y="38" font-size="24" font-weight="bold" fill="#fff">안전 대시보드</text>
        
        <!-- 날짜 표시 -->
        <text x="780" y="38" text-anchor="end" font-size="16" fill="#fff">2025년 5월 14일 수요일</text>
    </g>
    
    <!-- 안전 지수 패널 -->
    <rect x="20" y="80" width="240" height="190" rx="10" fill="#fff" stroke="#ddd" filter="url(#dropShadow)" />
    <text x="40" y="110" font-size="18" font-weight="bold" fill="#333">오늘의 안전 지수</text>
    
    <!-- 안전 지수 게이지 -->
    <g transform="translate(140, 180)">
        <circle r="70" fill="#f9f9f9" />
        <circle r="60" stroke="#f5f7fa" stroke-width="10" fill="none" />
        <circle r="60" stroke="#4caf50" stroke-width="10" fill="none" stroke-dasharray="280 380" />
        
        <!-- 게이지 눈금 -->
        <g opacity="0.5">
            <line x1="0" y1="-60" x2="0" y2="-50" stroke="#666" stroke-width="2" transform="rotate(0)" />
            <line x1="0" y1="-60" x2="0" y2="-50" stroke="#666" stroke-width="2" transform="rotate(30)" />
            <line x1="0" y1="-60" x2="0" y2="-50" stroke="#666" stroke-width="2" transform="rotate(60)" />
            <line x1="0" y1="-60" x2="0" y2="-50" stroke="#666" stroke-width="2" transform="rotate(90)" />
            <line x1="0" y1="-60" x2="0" y2="-50" stroke="#666" stroke-width="2" transform="rotate(120)" />
            <line x1="0" y1="-60" x2="0" y2="-50" stroke="#666" stroke-width="2" transform="rotate(150)" />
            <line x1="0" y1="-60" x2="0" y2="-50" stroke="#666" stroke-width="2" transform="rotate(180)" />
            <line x1="0" y1="-60" x2="0" y2="-50" stroke="#666" stroke-width="2" transform="rotate(210)" />
            <line x1="0" y1="-60" x2="0" y2="-50" stroke="#666" stroke-width="2" transform="rotate(240)" />
            <line x1="0" y1="-60" x2="0" y2="-50" stroke="#666" stroke-width="2" transform="rotate(270)" />
            <line x1="0" y1="-60" x2="0" y2="-50" stroke="#666" stroke-width="2" transform="rotate(300)" />
            <line x1="0" y1="-60" x2="0" y2="-50" stroke="#666" stroke-width="2" transform="rotate(330)" />
        </g>
        
        <!-- 지시침 -->
        <line x1="0" y1="0" x2="0" y2="-45" stroke="#1e88e5" stroke-width="3" transform="rotate(210)" />
        <circle r="8" fill="#1e88e5" />
        <circle r="5" fill="#fff" />
        
        <!-- 안전 점수 -->
        <text y="-15" text-anchor="middle" font-size="36" font-weight="bold" fill="#333">85</text>
        <text y="25" text-anchor="middle" font-size="16" fill="#4caf50">양호</text>
    </g>
    
    <!-- 전일 대비 추세 -->
    <text x="110" y="260" text-anchor="middle" font-size="14" fill="#4caf50">+2 전일 대비</text>
    <polygon points="142,240 142,250 150,245" fill="#4caf50" />
    
    <!-- 우선 조치 항목 패널 -->
    <rect x="280" y="80" width="500" height="190" rx="10" fill="#fff" stroke="#ddd" filter="url(#dropShadow)" />
    <text x="300" y="110" font-size="18" font-weight="bold" fill="#333">우선 조치 항목</text>
    <line x1="300" y1="120" x2="760" y2="120" stroke="#eee" />
    
    <!-- 조치 항목 리스트 -->
    <g>
        <rect x="300" y="135" width="460" height="30" rx="5" fill="#ffebee" filter="url(#highlightGlow)" />
        <rect x="300" y="135" width="5" height="30" rx="0 5 5 0" fill="#e53935" />
        <text x="320" y="155" font-size="14" fill="#e53935" font-weight="bold">전기설비 누전 위험: 작업장 B구역</text>
        <text x="740" y="155" text-anchor="end" font-size="14" fill="#e53935" font-weight="bold">긴급</text>
        
        <rect x="300" y="175" width="460" height="30" rx="5" fill="#fff8e1" />
        <rect x="300" y="175" width="5" height="30" rx="0 5 5 0" fill="#ffa000" />
        <text x="320" y="195" font-size="14" fill="#ffa000">지게차 안전벨트 미착용 발견: 물류창고</text>
        <text x="740" y="195" text-anchor="end" font-size="14" fill="#ffa000">오늘 16:00</text>
        
        <rect x="300" y="215" width="460" height="30" rx="5" fill="#e8f5e9" />
        <rect x="300" y="215" width="5" height="30" rx="0 5 5 0" fill="#43a047" />
        <text x="320" y="235" font-size="14" fill="#43a047">소화기 정기 점검 필요: 사무실 전체</text>
        <text x="740" y="235" text-anchor="end" font-size="14" fill="#43a047">내일 10:00</text>
    </g>
    
    <!-- 안전 활동 현황 패널 -->
    <rect x="20" y="280" width="380" height="200" rx="10" fill="#fff" stroke="#ddd" filter="url(#dropShadow)" />
    <text x="40" y="310" font-size="18" font-weight="bold" fill="#333">안전 활동 현황</text>
    <line x1="40" y1="320" x2="360" y2="320" stroke="#eee" />
    
    <!-- 그래프 영역 -->
    <g transform="translate(40, 330)">
        <!-- 배경 그리드 -->
        <g opacity="0.1">
            <line x1="0" y1="0" x2="320" y2="0" stroke="#333" />
            <line x1="0" y1="30" x2="320" y2="30" stroke="#333" />
            <line x1="0" y1="60" x2="320" y2="60" stroke="#333" />
            <line x1="0" y1="90" x2="320" y2="90" stroke="#333" />
            <line x1="0" y1="120" x2="320" y2="120" stroke="#333" />
        </g>
        
        <!-- Y축 -->
        <line x1="0" y1="0" x2="0" y2="120" stroke="#333" />
        
        <!-- X축 -->
        <line x1="0" y1="120" x2="320" y2="120" stroke="#333" />
        
        <!-- 바 차트 -->
        <rect x="40" y="30" width="35" height="90" rx="3" fill="#bbdefb" />
        <rect x="100" y="10" width="35" height="110" rx="3" fill="#bbdefb" />
        <rect x="160" y="60" width="35" height="60" rx="3" fill="#bbdefb" />
        <rect x="220" y="5" width="35" height="115" rx="3" fill="#1e88e5" />
        <rect x="280" y="40" width="35" height="80" rx="3" fill="#bbdefb" />
        
        <!-- X축 라벨 -->
        <text x="57.5" y="140" text-anchor="middle" font-size="12" fill="#666">월</text>
        <text x="117.5" y="140" text-anchor="middle" font-size="12" fill="#666">화</text>
        <text x="177.5" y="140" text-anchor="middle" font-size="12" fill="#666">수</text>
        <text x="237.5" y="140" text-anchor="middle" font-size="12" fill="#666">목</text>
        <text x="297.5" y="140" text-anchor="middle" font-size="12" fill="#666">금</text>
        
        <!-- 값 라벨 -->
        <text x="57.5" y="25" text-anchor="middle" font-size="12" fill="#1e88e5">15</text>
        <text x="117.5" y="5" text-anchor="middle" font-size="12" fill="#1e88e5">22</text>
        <text x="177.5" y="55" text-anchor="middle" font-size="12" fill="#1e88e5">12</text>
        <text x="237.5" y="0" text-anchor="middle" font-size="12" font-weight="bold" fill="#1e88e5">23</text>
        <text x="297.5" y="35" text-anchor="middle" font-size="12" fill="#1e88e5">16</text>
    </g>
    
    <!-- 알림 및 일정 패널 -->
    <rect x="420" y="280" width="360" height="200" rx="10" fill="#fff" stroke="#ddd" filter="url(#dropShadow)" />
    <text x="440" y="310" font-size="18" font-weight="bold" fill="#333">알림 및 일정</text>
    <line x1="440" y1="320" x2="760" y2="320" stroke="#eee" />
    
    <!-- 일정 목록 -->
    <g>
        <g>
            <rect x="440" y="330" width="320" height="40" rx="5" fill="#f5f7fa" />
            <rect x="440" y="330" width="5" height="40" fill="#1e88e5" rx="5 0 0 5" />
            <text x="455" y="350" font-size="14" font-weight="bold" fill="#333">10:00</text>
            <text x="510" y="350" font-size="14" fill="#333">안전 점검: 작업장 A구역</text>
            <circle cx="745" cy="350" r="8" fill="#e8f5e9" />
            <text x="745" cy="350" text-anchor="middle" font-size="10" fill="#43a047">✓</text>
        </g>
        
        <g>
            <rect x="440" y="380" width="320" height="40" rx="5" fill="#e3f2fd" />
            <rect x="440" y="380" width="5" height="40" fill="#1976d2" rx="5 0 0 5" />
            <text x="455" y="400" font-size="14" font-weight="bold" fill="#333">13:30</text>
            <text x="510" y="400" font-size="14" fill="#333">안전교육: 화재 대응 훈련</text>
            <circle cx="745" cy="400" r="8" fill="#fff" stroke="#1e88e5" stroke-width="1.5" />
        </g>
        
        <g>
            <rect x="440" y="430" width="320" height="40" rx="5" fill="#ffebee" />
            <rect x="440" y="430" width="5" height="40" fill="#e53935" rx="5 0 0 5" />
            <text x="455" y="450" font-size="14" font-weight="bold" fill="#333">15:00</text>
            <text x="510" y="450" font-size="14" fill="#e53935">안전 조치 마감: 전기설비 점검</text>
            <circle cx="745" cy="450" r="8" fill="#fff" stroke="#e53935" stroke-width="1.5" />
        </g>
    </g>
</svg>