<?xml version="1.0" encoding="UTF-8"?>
<svg width="800" height="500" viewBox="0 0 800 500" xmlns="http://www.w3.org/2000/svg">
    <defs>
        <linearGradient id="headerGradient" x1="0%" y1="0%" x2="100%" y2="0%">
            <stop offset="0%" stop-color="#1976d2" />
            <stop offset="100%" stop-color="#1565c0" />
        </linearGradient>
        <filter id="dropShadow" x="-10%" y="-10%" width="120%" height="120%">
            <feDropShadow dx="0" dy="2" stdDeviation="2" flood-color="#000" flood-opacity="0.2" />
        </filter>
        <linearGradient id="chartBgGradient" x1="0%" y1="0%" x2="0%" y2="100%">
            <stop offset="0%" stop-color="#e3f2fd" />
            <stop offset="100%" stop-color="#f5f7fa" />
        </linearGradient>
        <linearGradient id="highPriorityGradient" x1="0%" y1="0%" x2="100%" y2="0%">
            <stop offset="0%" stop-color="#c8e6c9" />
            <stop offset="100%" stop-color="#a5d6a7" />
        </linearGradient>
        <linearGradient id="mediumPriorityGradient" x1="0%" y1="0%" x2="100%" y2="0%">
            <stop offset="0%" stop-color="#fff9c4" />
            <stop offset="100%" stop-color="#fff59d" />
        </linearGradient>
        <linearGradient id="lowPriorityGradient" x1="0%" y1="0%" x2="100%" y2="0%">
            <stop offset="0%" stop-color="#ffcdd2" />
            <stop offset="100%" stop-color="#ef9a9a" />
        </linearGradient>
        <linearGradient id="selectedItemGradient" x1="0%" y1="0%" x2="100%" y2="0%">
            <stop offset="0%" stop-color="#bbdefb" />
            <stop offset="100%" stop-color="#90caf9" />
        </linearGradient>
    </defs>
    
    <!-- 배경 패널 -->
    <rect x="0" y="0" width="800" height="500" rx="10" fill="#f5f7fa" />
    
    <!-- 상단 헤더 -->
    <rect x="0" y="0" width="800" height="60" rx="10 10 0 0" fill="url(#headerGradient)" />
    
    <!-- 헤더 내용 -->
    <g>
        <!-- 로고 아이콘 -->
        <g transform="translate(20, 10) scale(0.4)">
            <circle cx="50" cy="50" r="45" fill="#1e88e5" />
            <path d="M50,20 C40,20 32,25 30,35 L30,40 L70,40 L70,35 C68,25 60,20 50,20 Z" fill="#ffffff" />
            <path d="M30,40 L32,55 L68,55 L70,40 Z" fill="#ffffff" />
            <polyline points="35,65 45,55 55,65 65,50" fill="none" stroke="#ffffff" stroke-width="3" />
            <circle cx="35" cy="65" r="3" fill="#ffa000" />
            <circle cx="45" cy="55" r="3" fill="#ffa000" />
            <circle cx="55" cy="65" r="3" fill="#ffa000" />
            <circle cx="65" cy="50" r="3" fill="#ffa000" />
        </g>
        
        <text x="80" y="38" font-size="24" font-weight="bold" fill="#fff">안전투자 최적화</text>
        <text x="780" y="38" text-anchor="end" font-size="16" fill="#fff">투자 우선순위 분석</text>
    </g>
    
    <!-- 투자 매트릭스 패널 -->
    <rect x="20" y="80" width="460" height="400" rx="10" fill="#fff" stroke="#ddd" filter="url(#dropShadow)" />
    <text x="40" y="110" font-size="18" font-weight="bold" fill="#333">안전 투자 우선순위 매트릭스</text>
    <line x1="40" y1="120" x2="460" y2="120" stroke="#eee" />
    
    <!-- 매트릭스 그래프 -->
    <g transform="translate(70, 150)">
        <!-- 그래프 배경 -->
        <rect x="0" y="0" width="360" height="260" rx="5" fill="url(#chartBgGradient)" />
        
        <!-- 그리드 라인 -->
        <g opacity="0.2">
            <line x1="0" y1="65" x2="360" y2="65" stroke="#333" />
            <line x1="0" y1="130" x2="360" y2="130" stroke="#333" />
            <line x1="0" y1="195" x2="360" y2="195" stroke="#333" />
            <line x1="90" y1="0" x2="90" y2="260" stroke="#333" />
            <line x1="180" y1="0" x2="180" y2="260" stroke="#333" />
            <line x1="270" y1="0" x2="270" y2="260" stroke="#333" />
        </g>
        
        <!-- 좌표축 -->
        <line x1="0" y1="260" x2="360" y2="260" stroke="#333" stroke-width="2" />
        <line x1="0" y1="0" x2="0" y2="260" stroke="#333" stroke-width="2" />
        
        <!-- 축 라벨 -->
        <text x="180" y="290" text-anchor="middle" font-weight="bold" font-size="14" fill="#333">투자 비용</text>
        <text x="-20" y="130" transform="rotate(-90 -20 130)" text-anchor="middle" font-weight="bold" font-size="14" fill="#333">안전 효과</text>
        
        <!-- 매트릭스 영역 구분 -->
        <g opacity="0.1">
            <rect x="0" y="0" width="180" height="130" fill="#4caf50" />
            <rect x="180" y="0" width="180" height="130" fill="#ff9800" />
            <rect x="0" y="130" width="180" height="130" fill="#ff9800" />
            <rect x="180" y="130" width="180" height="130" fill="#f44336" />
        </g>
        
        <!-- 매트릭스 항목들 -->
        <g>
            <!-- 전기 안전 설비 - 높은 효과, 낮은 비용 -->
            <circle cx="80" cy="50" r="40" fill="url(#highPriorityGradient)" stroke="#388e3c" stroke-width="2" />
            <text x="80" y="45" text-anchor="middle" font-size="12" font-weight="bold" fill="#333">전기 안전</text>
            <text x="80" y="65" text-anchor="middle" font-size="10" fill="#333">ROI: 250%</text>
            
            <!-- 안전 가드 - 중간 효과, 중간 비용 -->
            <circle cx="160" cy="150" r="30" fill="url(#mediumPriorityGradient)" stroke="#ffa000" stroke-width="2" />
            <text x="160" y="145" text-anchor="middle" font-size="12" font-weight="bold" fill="#333">안전 가드</text>
            <text x="160" y="165" text-anchor="middle" font-size="10" fill="#333">ROI: 120%</text>
            
            <!-- 환기 시스템 - 높은 효과, 높은 비용 -->
            <circle cx="280" cy="80" r="45" fill="url(#mediumPriorityGradient)" stroke="#ffa000" stroke-width="2" />
            <text x="280" y="75" text-anchor="middle" font-size="12" font-weight="bold" fill="#333">환기 시스템</text>
            <text x="280" y="95" text-anchor="middle" font-size="10" fill="#333">ROI: 90%</text>
            
            <!-- 조명 시설 - 낮은 효과, 높은 비용 -->
            <circle cx="300" cy="200" r="25" fill="url(#lowPriorityGradient)" stroke="#d32f2f" stroke-width="2" />
            <text x="300" y="195" text-anchor="middle" font-size="12" font-weight="bold" fill="#333">조명 시설</text>
            <text x="300" y="215" text-anchor="middle" font-size="10" fill="#333">ROI: 30%</text>
        </g>
    </g>
    
    <!-- 매트릭스 범례 -->
    <g transform="translate(75, 450)">
        <rect x="0" y="0" width="15" height="15" fill="url(#highPriorityGradient)" stroke="#388e3c" stroke-width="1" />
        <text x="25" y="12" font-size="12" fill="#333">높은 우선순위</text>
        
        <rect x="120" y="0" width="15" height="15" fill="url(#mediumPriorityGradient)" stroke="#ffa000" stroke-width="1" />
        <text x="145" y="12" font-size="12" fill="#333">중간 우선순위</text>
        
        <rect x="240" y="0" width="15" height="15" fill="url(#lowPriorityGradient)" stroke="#d32f2f" stroke-width="1" />
        <text x="265" y="12" font-size="12" fill="#333">낮은 우선순위</text>
    </g>
    
    <!-- 추천 지원사업 패널 -->
    <rect x="500" y="80" width="280" height="400" rx="10" fill="#fff" stroke="#ddd" filter="url(#dropShadow)" />
    <text x="520" y="110" font-size="18" font-weight="bold" fill="#333">추천 지원사업</text>
    <line x1="520" y1="120" x2="760" y2="120" stroke="#eee" />
    
    <!-- 지원사업 항목들 -->
    <g>
        <!-- 클린사업장 - 선택됨 -->
        <rect x="520" y="140" width="240" height="80" rx="5" fill="url(#selectedItemGradient)" />
        <rect x="520" y="140" width="5" height="80" rx="5 0 0 5" fill="#1565c0" />
        <text x="535" y="160" font-size="16" font-weight="bold" fill="#1565c0">클린사업장 조성 지원</text>
        <text x="535" y="180" font-size="12" fill="#333">안전 설비 구입 비용 70% 지원</text>
        <text x="535" y="200" font-size="12" fill="#333">신청 마감일: 2025-06-30</text>
        
        <!-- 안전보건 교육 지원금 -->
        <rect x="520" y="230" width="240" height="80" rx="5" fill="#f5f7fa" />
        <text x="535" y="250" font-size="16" font-weight="bold" fill="#333">안전보건 교육 지원금</text>
        <text x="535" y="270" font-size="12" fill="#666">안전교육 실시 비용 80% 지원</text>
        <text x="535" y="290" font-size="12" fill="#666">신청 마감일: 2025-07-15</text>
        
        <!-- 위험성 평가 인증 지원 -->
        <rect x="520" y="320" width="240" height="80" rx="5" fill="#f5f7fa" />
        <text x="535" y="340" font-size="16" font-weight="bold" fill="#333">위험성 평가 인증 지원</text>
        <text x="535" y="360" font-size="12" fill="#666">컨설팅 비용 전액 지원</text>
        <text x="535" y="380" font-size="12" fill="#666">상시 접수</text>
    </g>
    
    <!-- 하단 정보 및 버튼 영역 -->
    <g transform="translate(520, 410)">
        <rect x="0" y="0" width="120" height="40" rx="20" fill="url(#headerGradient)" filter="url(#dropShadow)" />
        <text x="60" y="25" text-anchor="middle" font-size="14" font-weight="bold" fill="#fff">지원금 신청</text>
        
        <rect x="130" y="0" width="110" height="40" rx="20" fill="#f5f7fa" stroke="#1e88e5" stroke-width="1.5" />
        <text x="185" y="25" text-anchor="middle" font-size="14" fill="#1e88e5">상세 정보</text>
    </g>

</svg>