<?xml version="1.0" encoding="UTF-8"?>
<svg width="100" height="100" viewBox="0 0 100 100" xmlns="http://www.w3.org/2000/svg">
  <defs>
    <!-- 향상된 그라디언트 -->
    <linearGradient id="logoGradient" x1="0%" y1="0%" x2="100%" y2="100%">
      <stop offset="0%" stop-color="#2196F3" />
      <stop offset="100%" stop-color="#0D47A1" />
    </linearGradient>
    
    <!-- 더 부드러운 그림자 효과 -->
    <filter id="shadow" x="-20%" y="-20%" width="140%" height="140%">
      <feDropShadow dx="0" dy="3" stdDeviation="3" flood-color="#000" flood-opacity="0.25" />
    </filter>
    
    <!-- 안전모 그라디언트 -->
    <linearGradient id="helmetGradient" x1="0%" y1="0%" x2="100%" y2="0%">
      <stop offset="0%" stop-color="#f5f5f5" />
      <stop offset="100%" stop-color="#e0e0e0" />
    </linearGradient>
    
    <!-- 데이터 포인트 그라디언트 -->
    <linearGradient id="dataPointGradient" x1="0%" y1="0%" x2="100%" y2="100%">
      <stop offset="0%" stop-color="#FFC107" />
      <stop offset="100%" stop-color="#FF8F00" />
    </linearGradient>
    
    <!-- 체크마크 그라디언트 -->
    <linearGradient id="checkGradient" x1="0%" y1="0%" x2="100%" y2="0%">
      <stop offset="0%" stop-color="#FFFFFF" />
      <stop offset="100%" stop-color="#E0E0E0" />
    </linearGradient>
  </defs>
  
  <!-- 메인 원 - 약간 더 크고 세련된 그라디언트 -->
  <circle cx="50" cy="50" r="46" fill="url(#logoGradient)" filter="url(#shadow)" />
  
  <!-- 안전모 - 더 정교한 디자인 -->
  <path d="M50,20 C39,20 30,26 28,38 L29,42 L71,42 L72,38 C70,26 61,20 50,20 Z" fill="url(#helmetGradient)" />
  <path d="M29,42 L31,56 L69,56 L71,42 Z" fill="url(#helmetGradient)" />
  
  <!-- 안전모 가장자리 하이라이트 -->
  <path d="M50,20 C39,20 30,26 28,38 L29,42 L71,42 L72,38 C70,26 61,20 50,20 Z" fill="none" stroke="#FFFFFF" stroke-width="1" opacity="0.5" />
  
  <!-- 안전모 디테일 -->
  <path d="M50,20 C54,20 58,21 61,22.5 L59,28 L41,28 L39,22.5 C42,21 46,20 50,20 Z" fill="#0D47A1" opacity="0.1" />
  
  <!-- 안전모 스트랩 -->
  <path d="M32,56 L35,64 L65,64 L68,56" fill="none" stroke="#0D47A1" stroke-width="1.5" stroke-opacity="0.2" />
  
  <!-- 데이터 흐름 그래프 - 더 부드러운 곡선 -->
  <path d="M35,69 Q40,61 45,59 Q50,57 55,63 Q60,69 65,54" fill="none" stroke="#FFFFFF" stroke-width="2.5" stroke-linecap="round" />
  
  <!-- 데이터 포인트 - 더 세련된 디자인 -->
  <circle cx="35" cy="69" r="3.5" fill="url(#dataPointGradient)" stroke="#FFFFFF" stroke-width="1" />
  <circle cx="45" cy="59" r="3.5" fill="url(#dataPointGradient)" stroke="#FFFFFF" stroke-width="1" />
  <circle cx="55" cy="63" r="3.5" fill="url(#dataPointGradient)" stroke="#FFFFFF" stroke-width="1" />
  <circle cx="65" cy="54" r="3.5" fill="url(#dataPointGradient)" stroke="#FFFFFF" stroke-width="1" />
  
  <!-- 안전 체크 마크 - 더 세련된 디자인 -->
  <path d="M42,76 L48,82 L60,67" fill="none" stroke="url(#checkGradient)" stroke-width="4" stroke-linecap="round" stroke-linejoin="round" />
</svg>