<?xml version="1.0" encoding="UTF-8"?>
<svg width="100" height="100" viewBox="0 0 100 100" xmlns="http://www.w3.org/2000/svg">
  <defs>
    <linearGradient id="logoGradient" x1="0%" y1="0%" x2="100%" y2="100%">
      <stop offset="0%" stop-color="#1e88e5" />
      <stop offset="100%" stop-color="#1565c0" />
    </linearGradient>
    <filter id="shadow" x="-20%" y="-20%" width="140%" height="140%">
      <feDropShadow dx="0" dy="2" stdDeviation="2" flood-color="#333" flood-opacity="0.3" />
    </filter>
  </defs>
  
  <!-- 메인 원 -->
  <circle cx="50" cy="50" r="45" fill="url(#logoGradient)" filter="url(#shadow)" />
  
  <!-- 안전모 형태 -->
  <path d="M50,20 C40,20 32,25 30,35 L30,40 L70,40 L70,35 C68,25 60,20 50,20 Z" fill="#ffffff" />
  <path d="M30,40 L32,55 L68,55 L70,40 Z" fill="#ffffff" />
  
  <!-- 데이터 흐름 그래프 -->
  <polyline points="35,65 45,55 55,65 65,50" fill="none" stroke="#ffffff" stroke-width="3" />
  <circle cx="35" cy="65" r="3" fill="#ffa000" />
  <circle cx="45" cy="55" r="3" fill="#ffa000" />
  <circle cx="55" cy="65" r="3" fill="#ffa000" />
  <circle cx="65" cy="50" r="3" fill="#ffa000" />
  
  <!-- 안전 체크 마크 -->
  <path d="M42,75 L47,80 L58,68" fill="none" stroke="#ffffff" stroke-width="4" stroke-linecap="round" stroke-linejoin="round" />
</svg>